<svg xmlns="http://www.w3.org/2000/svg" viewBox="0 0 400 400" data-reactid=".1clkzf7tzjo.0.1.0.0.0.0" version="1"><path d="M320 165l-37 7c-7 0-8 9-8 9l23-5 19-3c5-1 1 6 1 6l-17 5-27 8c-6 2-6 4-10 8-3 4-4 9-4 10l15-3 18-4 22-5 3 1c1 2-1 7-1 7l-4-1-19 7-22 6-12 5-7 4c-3 4-9 7-9 7l-10-12c-1-1 3-3 5-4l4-3 5-9 3-9-1-9c1-2 8-4 8-4l5-7-5-3-1-5c-1-3 1-4 1-4l3-1 20-3 32-3L200 45 44 200l51 51 25-54c-3-4-26 13-29 15l-2 2c2 4 5 2 5 2 1 9-9 3-9 3-5-8-8-7 6-19 14-11 30-15 32-16l3-1 2-7c1-2 2-3 3-2 1 0 4 5 6 5h18c2 0 4 0 5 2 1 1 7 6 10 14 4 8-10 23-20 33-9 9-39 27-41 29-3 1-3 2-4 4l95 94 155-155zm-154 89s-6-1-4-10 7-33 17-56c11-23 10-20 12-22 2-1 3-2 4 0l5 8c1 1-1 2-1 2l-5 10c-1 2-13 24-18 44-6 19-10 24-10 24zm27-29c-5-6-2-16-2-16 15-32 36-41 39-43 3-3 6-1 6-1 8 7 5 10 2 12-2 1 3-3-12 5s-25 28-26 33-1 6 3 5c4 0 23-11 26-13 4-1 5 3 7 3l13-9c-13 14-38 26-43 28-6 3-9 2-13-4zm-31-34c0-2-3-2-3-2h-20l-6 4-4 9-17 41 13-8c20-14 33-30 36-34 3-5 2-7 1-10z" data-reactid=".1clkzf7tzjo.0.1.0.0.0.0.0" fill="#fff"/></svg>