<svg xmlns="http://www.w3.org/2000/svg" viewBox="0 0 48 48" width="528" height="528"><path d="M42 39V9a3 3 0 0 0-3-3H9a3 3 0 0 0-3 3v30a3 3 0 0 0 3 3h30a3 3 0 0 0 3-3z" fill="#1c9957"/><path d="M9 42h30c1.7 0-15-16-15-16S7.3 42 9 42z" fill="#3e7bf1"/><path d="M42 39V9c0-1.7-16 15-16 15s16 16.7 16 15z" fill="#cbccc9"/><path d="M39 42a3 3 0 0 0 3-3v-.2L26.2 23 23 26.2 38.8 42z" fill="#efefef"/><path d="M42 9a3 3 0 0 0-3-3h-.2L6 38.8v.2a3 3 0 0 0 3 3h.2L42 9.2z" fill="#ffd73d"/><path d="M36 2a10 10 0 0 0-10 10c0 6.8 7.7 9.3 9.3 19.9.1.6.1 1.1.7 1.1s.6-.5.7-1.1C38.3 21.3 46 18.9 46 12A10 10 0 0 0 36 2z" fill="#d73f35"/><path d="M39.5 12a3.5 3.5 0 1 1-7 0 3.5 3.5 0 0 1 7 0z" fill="#752622"/><path d="M14.5 12.5v2.1h3a3 3 0 0 1-3 2.2 3.3 3.3 0 1 1 2.1-5.8l1.6-1.6a5.5 5.5 0 1 0-3.7 9.6c4.8 0 5.6-4.3 5.2-6.5z" fill="#fff"/></svg>