<svg xmlns="http://www.w3.org/2000/svg" width="411" height="112"><g fill-rule="evenodd"><path d="M267.4 68.6c-4.4 0-7.3-1.3-10.3-6L249.2 50l21.5-30H252l-17.1 23.8V.9h-15.6v82.4h15.6V57.2l11.4 18c4.3 6.5 10 8.3 19.4 8.3h4.6V68.6h-2.9zM407 68.6c-4.4 0-7.3-1.3-10.3-6L388.8 50l21.5-30h-18.7l-17.1 23.8V.9h-15.6v82.4h15.6V57.2l11.4 18c4.3 6.5 10 8.3 19.4 8.3h4.6V68.6H407zM24.3 84C14.6 84 6.7 82.2.2 75.6l10-10c3.3 3.3 9.1 4.5 14.2 4.5 6.2 0 9.1-2 9.1-5.7a6 6 0 0 0-1.2-3.8c-.8-.8-2.1-1.4-4.2-1.7l-7.7-1.1c-5.6-.8-9.9-2.7-12.7-5.6-2.9-3-4.4-7.3-4.4-12.7 0-11.6 8.7-20.1 23.2-20.1 9.1 0 16 2.1 21.4 7.6l-9.8 9.8c-4-4-9.3-3.7-12-3.7-5.4 0-7.7 3.1-7.7 5.9 0 .8.3 2 1.2 2.9.8.8 2.1 1.6 4.4 1.9l7.7 1.1c5.7.8 9.8 2.6 12.5 5.3 3.4 3.3 4.7 8 4.7 13.9C48.8 76.9 37.7 84 24.3 84zM96.4 76.9c-4.6 4.6-10 7.1-17.7 7.1-7.8 0-13.1-2.5-17.7-7.1-6.7-6.7-6.4-15.6-6.4-25.2 0-9.5-.3-18.5 6.4-25.1 4.6-4.6 10-7.1 17.7-7.1 7.8 0 13.1 2.5 17.7 7.1 6.7 6.7 6.4 15.6 6.4 25.1 0 9.5.2 18.5-6.4 25.2zM84.9 36.1a8 8 0 0 0-6.2-2.8c-2.9 0-5.1 1.2-6.2 2.8-1.4 1.9-2.3 4-2.3 15.6s.9 13.7 2.3 15.5a8 8 0 0 0 6.2 2.9c2.9 0 5.1-1.3 6.2-2.9 1.4-1.9 2.3-3.9 2.3-15.5s-.9-13.7-2.3-15.6zM329.3 84.1c-7.4 0-13-2.5-17.6-7.1-6.7-6.7-6.4-15.6-6.4-25.2 0-9.5-.3-18.5 6.4-25.1a23.6 23.6 0 0 1 17.6-7.1c12 0 21.7 6.7 24.1 20.7h-15.9c-1-3.6-2.9-6.8-8.1-6.8-2.9 0-5 1.2-6.1 2.7-1.4 1.9-2.4 4.1-2.4 15.7s1 13.8 2.4 15.7a7.7 7.7 0 0 0 6.1 2.7c5.2 0 7.1-3.2 8.1-6.8h15.9a23 23 0 0 1-24.1 20.6zM196 88.1c0 8.4-5.8 9.8-9.5 9.8h-5.7v13.9h6.9c15.5-.1 24-8.2 24-23.8l-.1-46.9a21 21 0 0 0-8.3-16.9c-4.4-3.3-10-5-15.6-5-7.4 0-13 2.5-17.6 7.1-6.7 6.7-6.4 15.6-6.4 25.1 0 9.5-.3 18.5 6.4 25.2a23.6 23.6 0 0 0 25.9 5.2v6.3zm-8.2-18c-2.9 0-5-1.2-6.1-2.7-1.4-1.9-2.4-4.1-2.4-15.7s1-13.8 2.4-15.7a7.7 7.7 0 0 1 6.1-2.7c5.1 0 7.1 3.1 8.1 6.6v23.6c-1 3.5-3 6.6-8.1 6.6zM157.4 47.5c0-6.5.3-14.3-6.4-20.9-4.6-4.6-10-7.1-17.7-7.1-7.8 0-13.1 2.5-17.7 7.1-6.7 6.7-6.4 14.9-6.4 20.9v36h15.6v-36c0-8.1.9-9.3 2.3-11.2a8 8 0 0 1 6.2-3c2.9 0 5.1 1.5 6.2 3 1.4 1.9 2.3 2.9 2.3 11.2v35.9h15.6V47.5zM290.4 13.6V1h-15.5v12.6h15.5zM274.5 20.1h15.9v38.8c0 6.9 4.4 9.8 9.6 9.8h3.6v14.8h-5.1c-15.8-.1-24-8.8-24-24V20.1z"/></g></svg>