<svg xmlns="http://www.w3.org/2000/svg" width="189" height="188.7" viewBox="0 0 50 49.9"><path d="M21.4 49.8c-6-.5-10.8-2.3-15-5.6-3.3-2.6-5.1-5.6-6-10-.6-3.6-.6-14.9 0-18.5 1-5 3.1-8.1 7.5-11 4.4-3 10-4.7 15.8-4.7h1.6v38.8h6.2V28.6l2.2 3.4c2.6 4 3 4.6 4 5.3 1.3 1 3.1 1.5 6 1.5h1.9V33h-1.2c-2.4-.2-3-.7-5.4-4.5l-1.7-2.8a73 73 0 0 1 4.1-6l4.3-6H42c-3.4 0-3.7 0-3.9.2a203 203 0 0 0-6.5 9l-.1-11.2V.4l1.5.3a24 24 0 0 1 14 8.4c1.5 2.3 2.4 4.7 2.8 8.3.3 2 .3 13.2 0 15.3a16 16 0 0 1-7.7 12.6 26.3 26.3 0 0 1-11.4 4.3c-2 .3-7.1.4-9.3.2zM15.6 39c2.3-.4 4.7-1.5 5.9-2.8a6.9 6.9 0 0 0 1.9-4.7c.1-2.4-.5-4.4-1.6-5.6-1.4-1.5-2.7-2-6.4-2.6-2.8-.4-3.4-.6-3.8-1.3l-.2-1c0-.7.4-1.3 1.2-1.8.5-.3.7-.3 2.2-.3 1.9 0 2.6.2 3.7 1l.7.3 1.9-2 2-1.9-.8-.6c-1-.8-2.7-1.6-4.1-2-1.6-.3-5.2-.4-6.6 0a8 8 0 0 0-6 5.4c-.4 1.2-.4 3.6 0 4.8a6.7 6.7 0 0 0 1.9 3c1.3 1 3 1.6 6.1 2 3 .4 3.5.7 3.7 2.1 0 1-.2 1.6-1.2 2-1.8 1-5.5.5-7.4-.8l-.7-.4-2 2-2 2 .4.2c.4.5 1.7 1.4 2.5 1.8 2.1 1 5.8 1.5 8.7 1.2z" fill="#fff"/></svg>