<svg xmlns="http://www.w3.org/2000/svg" width="100" height="100"><path d="M43.4 89.7A40.8 40.8 0 0 1 11 60.3a29 29 0 0 1-1-10.4c0-5.8.1-7.1.8-9.8a40.8 40.8 0 0 1 29.5-29.3c2.4-.6 4-.8 9.4-.8 6 0 6.9 0 10.3 1A40.3 40.3 0 0 1 57 89.5c-3.1.6-10.7.7-13.7.2zm24.5-21.5c1.8-1.8.8-3.5-3.3-5.5-3.4-1.7-7.1-3-11.2-3.9-6.8-1.5-24.1-.4-26 1.6-1.2 1.2-1.3 2.2-.4 3.3 1 1.2 1.4 1.2 8.6 0 3-.4 5.3-.6 9.7-.4 7.1.2 11.5 1.2 16.8 4 1.9 1 3.8 1.8 4.2 1.8.3 0 1-.4 1.6-.9zm4.8-10.8a3.2 3.2 0 0 0 0-4.5 49.9 49.9 0 0 0-29.5-7.8 43.1 43.1 0 0 0-16.7 2.2c-1.8 1-2.3 3-1.2 4.6 1 1.5 2.2 1.6 5.3.8A55.3 55.3 0 0 1 67.4 57c2.8 1.6 4 1.6 5.3.4zm4.7-12c2-1 2.6-4 1-5.7-1-1-5.7-3.4-9.7-4.8a83 83 0 0 0-15.4-3.5C42 30.1 25 32 22.9 34.7c-1.2 1.5-1 3.6.4 5 1 1 1.2 1.1 3 1l4.4-.8a65.3 65.3 0 0 1 40.9 4.5c3.3 1.7 4.2 1.9 5.8 1z"/></svg>