<?xml version="1.0" encoding="UTF-8" standalone="no"?>
<svg
   xmlns:dc="http://purl.org/dc/elements/1.1/"
   xmlns:cc="http://creativecommons.org/ns#"
   xmlns:rdf="http://www.w3.org/1999/02/22-rdf-syntax-ns#"
   xmlns:svg="http://www.w3.org/2000/svg"
   xmlns="http://www.w3.org/2000/svg"
   xmlns:sodipodi="http://sodipodi.sourceforge.net/DTD/sodipodi-0.dtd"
   xmlns:inkscape="http://www.inkscape.org/namespaces/inkscape"
   class="css-rrf2ji css-15ruz7f css-17vikwk"
   width="58px"
   height="58px"
   viewBox="0 0 58 58"
   version="1.1"
   id="svg873"
   sodipodi:docname="citymapper.svg"
   inkscape:version="0.92.2 (unknown)">
  <metadata
     id="metadata879">
    <rdf:RDF>
      <cc:Work
         rdf:about="">
        <dc:format>image/svg+xml</dc:format>
        <dc:type
           rdf:resource="http://purl.org/dc/dcmitype/StillImage" />
      </cc:Work>
    </rdf:RDF>
  </metadata>
  <defs
     id="defs877" />
  <sodipodi:namedview
     pagecolor="#ffffff"
     bordercolor="#666666"
     borderopacity="1"
     objecttolerance="10"
     gridtolerance="10"
     guidetolerance="10"
     inkscape:pageopacity="0"
     inkscape:pageshadow="2"
     inkscape:window-width="3086"
     inkscape:window-height="1758"
     id="namedview875"
     showgrid="false"
     inkscape:zoom="9.0948562"
     inkscape:cx="21.758779"
     inkscape:cy="6.2988999"
     inkscape:window-x="114"
     inkscape:window-y="42"
     inkscape:window-maximized="1"
     inkscape:current-layer="svg873" />
  <path
     d="m 12.556816,31.913616 c 1.6914,0 3.062765,-1.369531 3.062765,-3.059197 0,-1.689666 -1.371365,-3.059197 -3.062765,-3.059197 -1.691401,0 -3.0627659,1.369531 -3.0627659,3.059197 0,1.689666 1.3713649,3.059197 3.0627659,3.059197 z"
     id="left-eye"
     style="fill:#ffffff;stroke-width:1.42603195"
     inkscape:connector-curvature="0" />
  <path
     d="m 45.443184,31.913616 c 1.691401,0 3.062766,-1.369531 3.062766,-3.059197 0,-1.689666 -1.371365,-3.059197 -3.062766,-3.059197 -1.6914,0 -3.062765,1.369531 -3.062765,3.059197 0,1.689666 1.371365,3.059197 3.062765,3.059197 z"
     id="right-eye"
     style="fill:#ffffff;stroke-width:1.42603195"
     inkscape:connector-curvature="0" />
  <path
     d="m 30.92739,31.341132 h -9.216003 c -1.262674,0 -2.280124,-1.052347 -2.280124,-2.342365 0,-1.287016 1.01817,-2.338635 2.280124,-2.338635 l 9.21638,0.01686 -2.837234,-2.939983 c -0.880843,-0.90978 -0.880843,-2.380541 -9e-4,-3.294125 0.88856,-0.922531 2.344177,-0.921044 3.239874,-7.11e-4 l 6.67927,6.907195 c 0.425663,0.439647 0.664357,1.034087 0.664357,1.649395 0,0.617795 -0.237844,1.208869 -0.66405,1.649076 l -6.677998,6.909604 c -0.430544,0.449321 -1.013931,0.691102 -1.621173,0.691102 -0.607939,0 -1.184315,-0.239883 -1.62028,-0.690172 -0.879793,-0.913429 -0.879793,-2.383497 5.08e-4,-3.297452 z"
     id="arrow"
     style="fill:#ffffff;stroke-width:1.42603195"
     inkscape:connector-curvature="0" />
</svg>
