<?xml version="1.0" encoding="UTF-8" standalone="no"?>
<svg
   xmlns:dc="http://purl.org/dc/elements/1.1/"
   xmlns:cc="http://creativecommons.org/ns#"
   xmlns:rdf="http://www.w3.org/1999/02/22-rdf-syntax-ns#"
   xmlns:svg="http://www.w3.org/2000/svg"
   xmlns="http://www.w3.org/2000/svg"
   xmlns:sodipodi="http://sodipodi.sourceforge.net/DTD/sodipodi-0.dtd"
   xmlns:inkscape="http://www.inkscape.org/namespaces/inkscape"
   class="css-rrf2ji css-15ruz7f css-17vikwk"
   width="58px"
   height="58px"
   viewBox="0 0 58 58"
   version="1.1"
   id="svg873"
   sodipodi:docname="citymapper.svg"
   inkscape:version="0.92.2 (unknown)">
  <metadata
     id="metadata879">
    <rdf:RDF>
      <cc:Work
         rdf:about="">
        <dc:format>image/svg+xml</dc:format>
        <dc:type
           rdf:resource="http://purl.org/dc/dcmitype/StillImage" />
      </cc:Work>
    </rdf:RDF>
  </metadata>
  <defs
     id="defs877" />
  <sodipodi:namedview
     pagecolor="#ffffff"
     bordercolor="#666666"
     borderopacity="1"
     objecttolerance="10"
     gridtolerance="10"
     guidetolerance="10"
     inkscape:pageopacity="0"
     inkscape:pageshadow="2"
     inkscape:window-width="3086"
     inkscape:window-height="1758"
     id="namedview875"
     showgrid="false"
     inkscape:zoom="9.0948562"
     inkscape:cx="51.775746"
     inkscape:cy="6.2988999"
     inkscape:window-x="114"
     inkscape:window-y="42"
     inkscape:window-maximized="1"
     inkscape:current-layer="svg873" />
  <path
     d="M17.3376979,30.3407821 C18.5237867,30.3407821 19.4854517,29.3804032 19.4854517,28.1955307 C19.4854517,27.0106582 18.5237867,26.0502793 17.3376979,26.0502793 C16.1516091,26.0502793 15.1899441,27.0106582 15.1899441,28.1955307 C15.1899441,29.3804032 16.1516091,30.3407821 17.3376979,30.3407821 L17.3376979,30.3407821 Z"
     id="left-eye"
     style="fill:#ffffff" />
  <path
     d="M40.3991504,30.3407821 C41.5852393,30.3407821 42.5469042,29.3804032 42.5469042,28.1955307 C42.5469042,27.0106582 41.5852393,26.0502793 40.3991504,26.0502793 C39.2130616,26.0502793 38.2513966,27.0106582 38.2513966,28.1955307 C38.2513966,29.3804032 39.2130616,30.3407821 40.3991504,30.3407821 L40.3991504,30.3407821 Z"
     id="right-eye"
     style="fill:#ffffff" />
  <path
     d="M30.2199993,29.93933 L23.7573096,29.93933 C22.8718633,29.93933 22.1583799,29.2013753 22.1583799,28.2967542 C22.1583799,27.3942392 22.8723684,26.6567949 23.7573096,26.6567949 L30.2202638,26.6686205 L28.2306636,24.6069679 C27.6129756,23.9689877 27.6129756,22.9376215 28.2300324,22.2969737 C28.8531322,21.6500521 29.8738785,21.6510949 30.5019829,22.296475 L35.1857978,27.1401221 C35.4842922,27.4484225 35.651676,27.8652716 35.651676,28.2967542 C35.651676,28.7299808 35.4848888,29.1444696 35.1860132,29.4531636 L30.5030903,34.2984995 C30.2011727,34.613584 29.7920741,34.7831319 29.3662484,34.7831319 C28.9399328,34.7831319 28.5357511,34.614915 28.2300324,34.2991512 C27.6130807,33.6586127 27.6130807,32.6277326 28.2303888,31.9868246 L30.2199993,29.93933 Z"
     id="arrow"
     style="fill:#ffffff" />
</svg>
