<?xml version="1.0" encoding="UTF-8" standalone="no"?>
<svg
   xmlns:dc="http://purl.org/dc/elements/1.1/"
   xmlns:cc="http://creativecommons.org/ns#"
   xmlns:rdf="http://www.w3.org/1999/02/22-rdf-syntax-ns#"
   xmlns:svg="http://www.w3.org/2000/svg"
   xmlns="http://www.w3.org/2000/svg"
   xmlns:sodipodi="http://sodipodi.sourceforge.net/DTD/sodipodi-0.dtd"
   xmlns:inkscape="http://www.inkscape.org/namespaces/inkscape"
   alt="DICE"
   x="0"
   y="0"
   viewBox="0 0 400 400"
   data-reactid=".1clkzf7tzjo.0.1.0.0.0.0"
   version="1.1"
   id="svg1532"
   sodipodi:docname="dice.svg"
   inkscape:version="0.92.2 (unknown)">
  <metadata
     id="metadata1538">
    <rdf:RDF>
      <cc:Work
         rdf:about="">
        <dc:format>image/svg+xml</dc:format>
        <dc:type
           rdf:resource="http://purl.org/dc/dcmitype/StillImage" />
      </cc:Work>
    </rdf:RDF>
  </metadata>
  <defs
     id="defs1536" />
  <sodipodi:namedview
     pagecolor="#ffffff"
     bordercolor="#666666"
     borderopacity="1"
     objecttolerance="10"
     gridtolerance="10"
     guidetolerance="10"
     inkscape:pageopacity="0"
     inkscape:pageshadow="2"
     inkscape:window-width="1931"
     inkscape:window-height="886"
     id="namedview1534"
     showgrid="false"
     inkscape:zoom="1"
     inkscape:cx="-102.71186"
     inkscape:cy="200"
     inkscape:window-x="114"
     inkscape:window-y="42"
     inkscape:window-maximized="0"
     inkscape:current-layer="svg1532" />
  <path
     d="m 320.03269,165.32185 c -4.93319,0.86135 -31.71342,5.32472 -37.35136,6.18607 -6.26438,0.93966 -8.06539,9.00505 -8.06539,9.00505 l 22.94329,-4.07185 c 0,0 15.26943,-2.50575 19.7328,-3.2888 4.38506,-0.70474 0.78305,5.71625 0.78305,5.71625 0,0 -12.29385,3.52371 -17.38366,5.0115 -5.0115,1.48779 -20.20262,6.18608 -26.62361,8.37861 -6.42099,2.19253 -6.18607,3.2888 -9.8664,7.75217 -3.68032,4.46337 -4.22845,8.69182 -4.07184,9.55318 0.23491,0.86135 8.22199,-1.01797 15.03451,-2.42745 6.81251,-1.40949 18.1667,-4.38507 18.1667,-4.38507 7.12573,-1.87931 20.98567,-4.9332 21.4555,-4.9332 0.54813,0 1.33118,-0.31321 2.74066,1.33119 1.40949,1.6444 -0.62644,6.81251 -0.62644,6.81251 -0.70474,-0.86135 -4.22845,-0.54814 -4.22845,-0.54814 -4.38507,0.39153 -12.05893,3.60202 -18.55823,6.26438 -6.49929,2.66237 -18.32331,5.63795 -21.69041,6.65591 -3.3671,0.93965 -8.92674,3.44541 -12.68537,5.08981 -3.75863,1.6444 -6.81251,3.68032 -6.81251,3.68032 -2.97558,3.52371 -8.69183,6.6559 -8.69183,6.6559 0,0 -9.31826,-10.02301 -10.17961,-11.35419 -0.86136,-1.33118 2.74066,-2.97558 5.24641,-4.38506 2.50576,-1.40949 2.81898,-1.80101 3.91524,-3.13219 1.09627,-1.33118 3.13219,-6.5776 4.38507,-9.16166 1.25287,-2.58405 3.13219,-7.36064 3.3671,-8.45691 0.23492,-1.09626 -0.86135,-7.83047 -0.62644,-9.63148 0.23492,-1.80101 7.59556,-3.2105 7.59556,-3.2105 l 5.48134,-7.28234 -5.08981,-2.97558 c 0,0 -0.70475,-2.27083 -1.48779,-5.32472 -0.78305,-3.05388 1.01796,-3.52371 1.01796,-3.52371 0.70474,-0.70475 2.27084,-1.17457 3.52371,-1.48779 1.25288,-0.31322 16.36569,-2.19254 19.7328,-2.50576 2.50575,-0.23491 21.69041,-2.11422 31.87003,-3.05388 L 199.6,44.810848 44.4,200.01085 95.454692,251.06554 120.04238,197.11357 c -3.05388,-3.99354 -26.388697,13.07689 -28.737839,14.64299 -2.349142,1.56609 -2.114228,2.27084 -2.114228,2.27084 1.957618,4.15015 4.854894,2.19253 4.854894,2.19253 0.939657,8.37861 -9.005046,2.50575 -9.005046,2.50575 -5.246417,-7.28234 -7.830474,-7.12573 5.872856,-18.32331 13.703333,-11.27588 30.382243,-15.50434 31.948333,-16.13078 1.5661,-0.62643 2.89728,-1.56609 2.89728,-1.56609 0,0 2.03592,-5.71625 2.66236,-7.20404 0.62644,-1.48779 1.09627,-2.34914 2.34914,-1.95762 1.25288,0.39153 4.46337,5.08981 6.10777,5.95117 1.5661,0.78304 15.81756,-0.31322 18.0884,-0.31322 2.19253,0 3.60201,0.0783 4.85489,1.33118 1.25288,1.25287 7.04743,6.10777 10.57114,14.09485 3.52371,7.98708 -10.88436,23.80464 -20.28093,33.27952 -9.39657,9.39657 -39.15237,27.40666 -41.42321,28.65953 -2.19253,1.17457 -3.05388,2.58406 -3.75862,4.07185 l 94.67043,94.67043 155.2,-155.2 z m -153.5556,88.87588 c 0,0 -6.96912,-1.01796 -4.93319,-9.9447 2.03592,-8.92674 7.83047,-33.43613 17.93178,-56.30111 10.10131,-22.86499 9.47487,-20.35924 11.43249,-21.53381 1.87932,-1.17457 2.97558,-2.42744 4.46337,-0.23491 1.5661,2.19253 4.07185,8.06539 4.61998,8.222 0.54814,0.15661 -1.01796,1.87931 -1.01796,1.87931 0,0 -4.46337,8.3003 -5.40303,10.10131 -0.93965,1.80101 -12.13723,23.33482 -17.69687,43.22422 -5.55963,19.88941 -9.39657,24.58769 -9.39657,24.58769 z m 26.23209,-29.20767 c -4.61998,-5.55964 -1.48779,-15.66095 -1.48779,-15.66095 15.03451,-32.18325 36.02018,-41.65812 38.99576,-43.77235 2.97558,-2.11423 5.55964,-0.46983 5.55964,-0.46983 7.90878,6.65591 5.08981,10.33623 2.58406,11.74571 -2.50575,1.40949 2.74066,-2.34914 -12.21554,5.55964 -14.95621,7.90878 -25.44904,28.0331 -26.3887,32.65308 -0.86135,4.61998 -0.86135,5.79455 3.05388,5.32472 3.91524,-0.46983 23.0216,-11.82402 26.46701,-13.31181 3.44541,-1.40948 5.08981,3.2105 6.49929,2.74067 1.40949,-0.46983 13.07689,-9.08335 13.07689,-9.08335 -12.37215,14.32977 -37.42966,26.23209 -42.9893,28.58123 -5.48133,2.42745 -8.45691,1.25288 -13.1552,-4.30676 z m -30.38224,-33.59273 c -0.70474,-2.19254 -2.89727,-2.34915 -2.89727,-2.34915 -4.54168,-1.33118 -18.40162,-0.15661 -19.96771,0.0783 -1.5661,0.23491 -4.8549,2.50575 -6.26438,3.60202 -1.40949,1.09626 -4.54168,8.84843 -4.54168,8.84843 l -16.83552,41.34491 13.2335,-7.90878 c 20.20263,-13.62503 32.9663,-29.99072 36.09849,-34.45409 3.13219,-4.30676 1.87932,-6.96912 1.17457,-9.16165 z"
     data-reactid=".1clkzf7tzjo.0.1.0.0.0.0.0"
     id="path1530"
     style="fill:#ffffff;stroke-width:0.78304744"
     inkscape:connector-curvature="0" />
</svg>
