<?xml version="1.0" encoding="UTF-8" standalone="no"?>
<svg
   xmlns:dc="http://purl.org/dc/elements/1.1/"
   xmlns:cc="http://creativecommons.org/ns#"
   xmlns:rdf="http://www.w3.org/1999/02/22-rdf-syntax-ns#"
   xmlns:svg="http://www.w3.org/2000/svg"
   xmlns="http://www.w3.org/2000/svg"
   xmlns:sodipodi="http://sodipodi.sourceforge.net/DTD/sodipodi-0.dtd"
   xmlns:inkscape="http://www.inkscape.org/namespaces/inkscape"
   alt="DICE"
   x="0"
   y="0"
   viewBox="0 0 400 400"
   data-reactid=".1clkzf7tzjo.0.1.0.0.0.0"
   version="1.1"
   id="svg1532"
   sodipodi:docname="dice.svg"
   inkscape:version="0.92.2 (unknown)">
  <metadata
     id="metadata1538">
    <rdf:RDF>
      <cc:Work
         rdf:about="">
        <dc:format>image/svg+xml</dc:format>
        <dc:type
           rdf:resource="http://purl.org/dc/dcmitype/StillImage" />
      </cc:Work>
    </rdf:RDF>
  </metadata>
  <defs
     id="defs1536" />
  <sodipodi:namedview
     pagecolor="#ffffff"
     bordercolor="#666666"
     borderopacity="1"
     objecttolerance="10"
     gridtolerance="10"
     guidetolerance="10"
     inkscape:pageopacity="0"
     inkscape:pageshadow="2"
     inkscape:window-width="1931"
     inkscape:window-height="886"
     id="namedview1534"
     showgrid="false"
     inkscape:zoom="0.59"
     inkscape:cx="200"
     inkscape:cy="200"
     inkscape:window-x="114"
     inkscape:window-y="42"
     inkscape:window-maximized="0"
     inkscape:current-layer="svg1532" />
  <path
     fill="#ffffff"
     d="M353.4 155.7c-6.3 1.1-40.5 6.8-47.7 7.9 -8 1.2-10.3 11.5-10.3 11.5l29.3-5.2c0 0 19.5-3.2 25.2-4.2 5.6-0.9 1 7.3 1 7.3s-15.7 4.5-22.2 6.4c-6.4 1.9-25.8 7.9-34 10.7s-7.9 4.2-12.6 9.9 -5.4 11.1-5.2 12.2c0.3 1.1 10.5-1.3 19.2-3.1 8.7-1.8 23.2-5.6 23.2-5.6 9.1-2.4 26.8-6.3 27.4-6.3 0.7 0 1.7-0.4 3.5 1.7 1.8 2.1-0.8 8.7-0.8 8.7 -0.9-1.1-5.4-0.7-5.4-0.7 -5.6 0.5-15.4 4.6-23.7 8 -8.3 3.4-23.4 7.2-27.7 8.5 -4.3 1.2-11.4 4.4-16.2 6.5 -4.8 2.1-8.7 4.7-8.7 4.7 -3.8 4.5-11.1 8.5-11.1 8.5s-11.9-12.8-13-14.5 3.5-3.8 6.7-5.6c3.2-1.8 3.6-2.3 5-4 1.4-1.7 4-8.4 5.6-11.7 1.6-3.3 4-9.4 4.3-10.8 0.3-1.4-1.1-10-0.8-12.3s9.7-4.1 9.7-4.1l7-9.3 -6.5-3.8c0 0-0.9-2.9-1.9-6.8 -1-3.9 1.3-4.5 1.3-4.5 0.9-0.9 2.9-1.5 4.5-1.9 1.6-0.4 20.9-2.8 25.2-3.2 3.2-0.3 27.7-2.7 40.7-3.9L199.6 1.8 1.4 200l65.2 65.2L98 196.3c-3.9-5.1-33.7 16.7-36.7 18.7 -3 2-2.7 2.9-2.7 2.9 2.5 5.3 6.2 2.8 6.2 2.8 1.2 10.7-11.5 3.2-11.5 3.2 -6.7-9.3-10-9.1 7.5-23.4 17.5-14.4 38.8-19.8 40.8-20.6 2-0.8 3.7-2 3.7-2s2.6-7.3 3.4-9.2c0.8-1.9 1.4-3 3-2.5 1.6 0.5 5.7 6.5 7.8 7.6 2 1 20.2-0.4 23.1-0.4 2.8 0 4.6 0.1 6.2 1.7 1.6 1.6 9 7.8 13.5 18 4.5 10.2-13.9 30.4-25.9 42.5 -12 12-50 35-52.9 36.6 -2.8 1.5-3.9 3.3-4.8 5.2l120.9 120.9 198.2-198.2L353.4 155.7zM157.3 269.2c0 0-8.9-1.3-6.3-12.7 2.6-11.4 10-42.7 22.9-71.9s12.1-26 14.6-27.5c2.4-1.5 3.8-3.1 5.7-0.3 2 2.8 5.2 10.3 5.9 10.5s-1.3 2.4-1.3 2.4 -5.7 10.6-6.9 12.9 -15.5 29.8-22.6 55.2S157.3 269.2 157.3 269.2zM190.8 231.9c-5.9-7.1-1.9-20-1.9-20 19.2-41.1 46-53.2 49.8-55.9 3.8-2.7 7.1-0.6 7.1-0.6 10.1 8.5 6.5 13.2 3.3 15s3.5-3-15.6 7.1 -32.5 35.8-33.7 41.7c-1.1 5.9-1.1 7.4 3.9 6.8 5-0.6 29.4-15.1 33.8-17 4.4-1.8 6.5 4.1 8.3 3.5 1.8-0.6 16.7-11.6 16.7-11.6 -15.8 18.3-47.8 33.5-54.9 36.5C200.6 240.5 196.8 239 190.8 231.9zM152 189c-0.9-2.8-3.7-3-3.7-3 -5.8-1.7-23.5-0.2-25.5 0.1 -2 0.3-6.2 3.2-8 4.6C113 192.1 109 202 109 202l-21.5 52.8 16.9-10.1c25.8-17.4 42.1-38.3 46.1-44C154.5 195.2 152.9 191.8 152 189z"
     data-reactid=".1clkzf7tzjo.0.1.0.0.0.0.0"
     id="path1530"
     style="fill:#ffffff" />
</svg>
