<?xml version="1.0" encoding="UTF-8" standalone="no"?>
<svg width="411px" height="112px" viewBox="0 0 411 112" version="1.1" xmlns="http://www.w3.org/2000/svg" xmlns:xlink="http://www.w3.org/1999/xlink" xmlns:sketch="http://www.bohemiancoding.com/sketch/ns">
    <!-- Generator: Sketch 3.2.2 (9983) - http://www.bohemiancoding.com/sketch -->
    <title>songkick</title>
    <desc>Created with Sketch.</desc>
    <defs></defs>
    <g id="Page-1" stroke="none" stroke-width="1" fill="none" fill-rule="evenodd" sketch:type="MSPage">
        <g id="songkick" sketch:type="MSLayerGroup" fill="#FFFFFF">
            <path d="M267.4,68.6 C263,68.6 260.1,67.3 257.1,62.6 C254.2,57.9 249.2,50 249.2,50 L270.7,20 L252,20 L234.9,43.8 L234.9,0.9 L219.3,0.9 L219.3,83.3 L234.9,83.3 L234.9,57.2 C234.9,57.2 243.6,70.9 246.3,75.2 C250.6,81.7 256.3,83.5 265.7,83.5 L270.3,83.5 L270.3,68.6 L267.4,68.6 L267.4,68.6 Z" id="Shape" sketch:type="MSShapeGroup"></path>
            <path d="M407,68.6 C402.6,68.6 399.7,67.3 396.7,62.6 C393.7,57.9 388.8,50 388.8,50 L410.3,20 L391.6,20 L374.5,43.8 L374.5,0.9 L358.9,0.9 L358.9,83.3 L374.5,83.3 L374.5,57.2 C374.5,57.2 383.2,70.9 385.9,75.2 C390.2,81.7 395.9,83.5 405.3,83.5 L409.9,83.5 L409.9,68.6 L407,68.6 L407,68.6 Z" id="Shape" sketch:type="MSShapeGroup"></path>
            <path d="M24.3,84 C14.6,84 6.7,82.2 0.2,75.6 L10.2,65.6 C13.5,68.9 19.3,70.1 24.4,70.1 C30.6,70.1 33.5,68.1 33.5,64.4 C33.5,62.9 33.1,61.6 32.3,60.6 C31.5,59.8 30.2,59.2 28.1,58.9 L20.4,57.8 C14.8,57 10.5,55.1 7.7,52.2 C4.8,49.2 3.3,44.9 3.3,39.5 C3.3,27.9 12,19.4 26.5,19.4 C35.6,19.4 42.5,21.5 47.9,27 L38.1,36.8 C34.1,32.8 28.8,33.1 26.1,33.1 C20.7,33.1 18.4,36.2 18.4,39 C18.4,39.8 18.7,41 19.6,41.9 C20.4,42.7 21.7,43.5 24,43.8 L31.7,44.9 C37.4,45.7 41.5,47.5 44.2,50.2 C47.6,53.5 48.9,58.2 48.9,64.1 C48.8,76.9 37.7,84 24.3,84 L24.3,84 Z" id="Shape" sketch:type="MSShapeGroup"></path>
            <path d="M96.4,76.9 C91.8,81.5 86.4,84 78.7,84 C70.9,84 65.6,81.5 61,76.9 C54.3,70.2 54.6,61.3 54.6,51.7 C54.6,42.2 54.3,33.2 61,26.6 C65.6,22 71,19.5 78.7,19.5 C86.5,19.5 91.8,22 96.4,26.6 C103.1,33.3 102.8,42.2 102.8,51.7 C102.8,61.2 103,70.2 96.4,76.9 L96.4,76.9 Z M84.9,36.1 C83.7,34.6 81.5,33.3 78.7,33.3 C75.8,33.3 73.6,34.5 72.5,36.1 C71.1,38 70.2,40.1 70.2,51.7 C70.2,63.3 71.1,65.4 72.5,67.2 C73.7,68.7 75.9,70.1 78.7,70.1 C81.6,70.1 83.8,68.8 84.9,67.2 C86.3,65.3 87.2,63.3 87.2,51.7 C87.2,40.1 86.3,38 84.9,36.1 L84.9,36.1 Z" id="Shape" sketch:type="MSShapeGroup"></path>
            <path d="M329.3,84.1 C321.9,84.1 316.3,81.6 311.7,77 C305,70.3 305.3,61.4 305.3,51.8 C305.3,42.3 305,33.3 311.7,26.7 C316.3,22.1 321.9,19.6 329.3,19.6 C341.3,19.6 351,26.3 353.4,40.3 L337.5,40.3 C336.5,36.7 334.6,33.5 329.4,33.5 C326.5,33.5 324.4,34.7 323.3,36.2 C321.9,38.1 320.9,40.3 320.9,51.9 C320.9,63.5 321.9,65.7 323.3,67.6 C324.5,69.1 326.6,70.3 329.4,70.3 C334.6,70.3 336.5,67.1 337.5,63.5 L353.4,63.5 C351.1,77.4 341.3,84.1 329.3,84.1 L329.3,84.1 Z" id="Shape" sketch:type="MSShapeGroup"></path>
            <path d="M196,88.1 C196,96.5 190.2,97.9 186.5,97.9 L180.8,97.9 L180.8,111.8 L187.7,111.8 C203.2,111.7 211.7,103.6 211.7,88 L211.6,41.1 C211.6,33.8 208.2,28 203.3,24.2 C198.9,20.9 193.3,19.2 187.7,19.2 C180.3,19.2 174.7,21.7 170.1,26.3 C163.4,33 163.7,41.9 163.7,51.4 C163.7,60.9 163.4,69.9 170.1,76.6 C174.7,81.2 180.3,83.7 187.7,83.7 C190.6,83.7 193.2,83.1 196,81.8 L196,88.1 L196,88.1 Z M187.8,70.1 C184.9,70.1 182.8,68.9 181.7,67.4 C180.3,65.5 179.3,63.3 179.3,51.7 C179.3,40.1 180.3,37.9 181.7,36 C182.9,34.5 185,33.3 187.8,33.3 C192.9,33.3 194.9,36.4 195.9,39.9 L195.9,63.5 C194.9,67 192.9,70.1 187.8,70.1 L187.8,70.1 Z" id="Shape" sketch:type="MSShapeGroup"></path>
            <path d="M157.4,47.5 C157.4,41 157.7,33.2 151,26.6 C146.4,22 141,19.5 133.3,19.5 C125.5,19.5 120.2,22 115.6,26.6 C108.9,33.3 109.2,41.5 109.2,47.5 L109.2,83.5 L124.8,83.5 L124.8,47.5 C124.8,39.4 125.7,38.2 127.1,36.3 C128.3,34.8 130.5,33.3 133.3,33.3 C136.2,33.3 138.4,34.8 139.5,36.3 C140.9,38.2 141.8,39.2 141.8,47.5 L141.8,83.4 L157.4,83.4 L157.4,47.5 L157.4,47.5 Z" id="Shape" sketch:type="MSShapeGroup"></path>
            <path d="M290.4,13.6 L290.4,1 L274.9,1 L274.9,13.6 L290.4,13.6 Z" id="Shape" sketch:type="MSShapeGroup"></path>
            <path d="M274.5,20.1 L290.4,20.1 L290.4,58.9 C290.4,65.8 294.8,68.7 300,68.7 L303.6,68.7 L303.6,83.5 L298.5,83.5 C282.7,83.4 274.5,74.7 274.5,59.5 L274.5,20.1 L274.5,20.1 Z" id="Shape" sketch:type="MSShapeGroup"></path>
        </g>
    </g>
</svg>
