<?xml version="1.0" encoding="UTF-8" standalone="no"?>
<!-- Created with Inkscape (http://www.inkscape.org/) -->

<svg
   xmlns:dc="http://purl.org/dc/elements/1.1/"
   xmlns:cc="http://creativecommons.org/ns#"
   xmlns:rdf="http://www.w3.org/1999/02/22-rdf-syntax-ns#"
   xmlns:svg="http://www.w3.org/2000/svg"
   xmlns="http://www.w3.org/2000/svg"
   xmlns:sodipodi="http://sodipodi.sourceforge.net/DTD/sodipodi-0.dtd"
   xmlns:inkscape="http://www.inkscape.org/namespaces/inkscape"
   width="49.998924mm"
   height="49.917198mm"
   viewBox="0 0 49.998924 49.917198"
   version="1.1"
   id="svg5798"
   sodipodi:docname="songkick-small.svg"
   inkscape:version="0.92.2 (unknown)">
  <defs
     id="defs5792" />
  <sodipodi:namedview
     id="base"
     pagecolor="#ffffff"
     bordercolor="#666666"
     borderopacity="1.0"
     inkscape:pageopacity="0.0"
     inkscape:pageshadow="2"
     inkscape:zoom="1"
     inkscape:cx="-448.053"
     inkscape:cy="-432.20653"
     inkscape:document-units="mm"
     inkscape:current-layer="layer1"
     showgrid="false"
     fit-margin-top="0"
     fit-margin-left="0"
     fit-margin-right="0"
     fit-margin-bottom="0"
     inkscape:window-width="3086"
     inkscape:window-height="1758"
     inkscape:window-x="114"
     inkscape:window-y="42"
     inkscape:window-maximized="1" />
  <metadata
     id="metadata5795">
    <rdf:RDF>
      <cc:Work
         rdf:about="">
        <dc:format>image/svg+xml</dc:format>
        <dc:type
           rdf:resource="http://purl.org/dc/dcmitype/StillImage" />
        <dc:title></dc:title>
      </cc:Work>
    </rdf:RDF>
  </metadata>
  <g
     inkscape:label="Layer 1"
     inkscape:groupmode="layer"
     id="layer1"
     transform="translate(-80.000537,-123.5414)">
    <path
       style="fill:#ffffff;stroke-width:0.10093711"
       d="m 102.23669,167.30529 c -4.571805,-0.40587 -8.288174,-1.77988 -11.513161,-4.25663 -2.528119,-1.94156 -3.907867,-4.25572 -4.528417,-7.59521 -0.497312,-2.67632 -0.498563,-11.20481 -0.0023,-13.95151 0.675332,-3.73587 2.316138,-6.15311 5.69125,-8.38431 3.404126,-2.25039 7.696902,-3.49081 12.080768,-3.49081 h 1.24605 v 14.68106 14.68106 h 2.388 2.38799 l 0.0266,-3.88138 0.0266,-3.8814 1.67177,2.60369 c 1.95644,3.04702 2.26863,3.46462 3.00827,4.02398 1.05196,0.79556 2.40929,1.12602 4.64794,1.13162 l 1.39793,0.004 v -2.19075 -2.19077 l -0.88959,-0.0555 c -1.8605,-0.116 -2.31328,-0.48574 -4.16697,-3.40264 -0.68421,-1.07666 -1.26918,-2.02218 -1.29992,-2.10114 -0.0335,-0.086 1.24419,-1.92762 3.18904,-4.59648 l 3.24492,-4.45293 -2.80471,-0.0267 c -2.57015,-0.0244 -2.81886,-0.0119 -2.9739,0.15031 -0.0931,0.0974 -1.23256,1.6426 -2.53222,3.43389 -1.29967,1.79129 -2.40362,3.29973 -2.45322,3.3521 -0.0525,0.0554 -0.0902,-3.46631 -0.0902,-8.43191 v -8.52705 l 1.16799,0.24302 c 4.36451,0.90806 8.77751,3.51925 10.72503,6.34605 1.16812,1.69552 1.8143,3.55965 2.15474,6.21616 0.19049,1.48642 0.18811,10.04688 -0.003,11.57449 -0.55597,4.43902 -2.22898,7.13447 -5.95118,9.58809 -2.58541,1.70427 -5.24166,2.68144 -8.67186,3.19016 -1.60589,0.23816 -5.50842,0.34584 -7.17432,0.19795 z m -4.480045,-8.2231 c 1.78415,-0.24045 3.623865,-1.09567 4.556505,-2.11814 0.95929,-1.05169 1.36106,-2.036 1.44533,-3.54097 0.0992,-1.77163 -0.35012,-3.3052 -1.24457,-4.24776 -1.04236,-1.0984 -2.0591,-1.49482 -4.90011,-1.91046 -2.102622,-0.30762 -2.593904,-0.47695 -2.908978,-1.0027 -0.09282,-0.15488 -0.16876,-0.48218 -0.16876,-0.72732 0,-0.5708 0.315825,-1.04414 0.918945,-1.37728 0.416446,-0.23002 0.557573,-0.25053 1.72441,-0.25053 1.433189,0 1.998249,0.1387 2.840143,0.69715 l 0.4942,0.32782 1.4934,-1.47449 1.49341,-1.47448 -0.59348,-0.47045 c -0.79135,-0.6273 -2.01588,-1.20548 -3.135157,-1.48029 -1.236396,-0.30357 -3.98674,-0.32971 -5.083375,-0.0483 -2.319567,0.59521 -3.961032,2.07042 -4.588156,4.12348 -0.273508,0.89541 -0.252787,2.67601 0.04212,3.61966 0.259975,0.83183 0.860625,1.76766 1.417883,2.20907 1.012285,0.80185 2.269295,1.21326 4.703998,1.5396 2.300671,0.30837 2.706116,0.54188 2.809261,1.61793 0.07257,0.75695 -0.163106,1.1517 -0.909501,1.52355 -1.343461,0.66927 -4.226562,0.36297 -5.684177,-0.60389 l -0.522736,-0.34674 -1.50389,1.47989 -1.50389,1.47989 0.22619,0.2401 c 0.317313,0.33683 1.350435,1.04905 1.954536,1.34746 1.607219,0.79388 4.431901,1.16397 6.626443,0.86821 z"
       id="path6354"
       inkscape:connector-curvature="0"
       sodipodi:nodetypes="csscsscccccccsscccccccscccccscssccsccccsscccscscccccsscccccccccccsc" />
  </g>
</svg>
