<?xml version="1.0" encoding="UTF-8" standalone="no"?>
<!-- Created with Inkscape (http://www.inkscape.org/) -->

<svg
   xmlns:dc="http://purl.org/dc/elements/1.1/"
   xmlns:cc="http://creativecommons.org/ns#"
   xmlns:rdf="http://www.w3.org/1999/02/22-rdf-syntax-ns#"
   xmlns:svg="http://www.w3.org/2000/svg"
   xmlns="http://www.w3.org/2000/svg"
   xmlns:sodipodi="http://sodipodi.sourceforge.net/DTD/sodipodi-0.dtd"
   xmlns:inkscape="http://www.inkscape.org/namespaces/inkscape"
   width="49.998924mm"
   height="49.917198mm"
   viewBox="0 0 49.998924 49.917198"
   version="1.1"
   id="svg5798"
   inkscape:version="0.92.2 (unknown)"
   sodipodi:docname="songkick-small.svg">
  <defs
     id="defs5792" />
  <sodipodi:namedview
     id="base"
     pagecolor="#ffffff"
     bordercolor="#666666"
     borderopacity="1.0"
     inkscape:pageopacity="0.0"
     inkscape:pageshadow="2"
     inkscape:zoom="1"
     inkscape:cx="-448.053"
     inkscape:cy="-432.20653"
     inkscape:document-units="mm"
     inkscape:current-layer="layer1"
     showgrid="false"
     fit-margin-top="0"
     fit-margin-left="0"
     fit-margin-right="0"
     fit-margin-bottom="0"
     inkscape:window-width="3086"
     inkscape:window-height="1758"
     inkscape:window-x="114"
     inkscape:window-y="42"
     inkscape:window-maximized="1" />
  <metadata
     id="metadata5795">
    <rdf:RDF>
      <cc:Work
         rdf:about="">
        <dc:format>image/svg+xml</dc:format>
        <dc:type
           rdf:resource="http://purl.org/dc/dcmitype/StillImage" />
        <dc:title></dc:title>
      </cc:Work>
    </rdf:RDF>
  </metadata>
  <g
     inkscape:label="Layer 1"
     inkscape:groupmode="layer"
     id="layer1"
     transform="translate(-80.000537,-123.5414)">
    <path
       style="fill:#ffffff;stroke-width:0.13252413"
       d="m 101.39801,173.36881 c -5.959378,-0.53673 -10.803688,-2.35377 -15.007478,-5.62912 -3.29542,-2.56759 -5.09393,-5.62792 -5.90282,-10.04419 -0.64825,-3.53926 -0.64988,-14.81765 -0.003,-18.44999 0.8803,-4.94046 3.0191,-8.1371 7.41858,-11.08773 4.4373,-2.976 10.03296,-4.61638 15.747358,-4.61638 h 1.62424 v 19.41479 19.41478 h 3.11276 3.11276 l 0.0347,-5.13289 0.0347,-5.1329 2.17917,3.44321 c 2.55023,4.0295 2.95717,4.58175 3.92129,5.32146 1.37124,1.05208 3.14053,1.4891 6.05863,1.4965 l 1.8222,0.005 v -2.89713 -2.89715 l -1.15958,-0.0734 c -2.42518,-0.15341 -3.01538,-0.64236 -5.43167,-4.49978 -0.89188,-1.42382 -1.65438,-2.6742 -1.69445,-2.77862 -0.0437,-0.11379 1.6218,-2.54916 4.15693,-6.07856 l 4.22977,-5.88872 -3.65596,-0.0353 c -3.3502,-0.0323 -3.6744,-0.0157 -3.87649,0.19878 -0.1213,0.12874 -1.60665,2.17223 -3.30077,4.5411 -1.69412,2.36887 -3.13313,4.36369 -3.19778,4.43294 -0.0685,0.0733 -0.11756,-4.58398 -0.11756,-11.15067 v -11.27648 l 1.52249,0.32137 c 5.68916,1.20085 11.44153,4.65399 13.98014,8.39226 1.52265,2.24221 2.36495,4.70741 2.80872,8.22047 0.2483,1.9657 0.2452,13.28637 -0.004,15.30654 -0.72471,5.87033 -2.9055,9.43489 -7.75741,12.67965 -3.37009,2.25379 -6.83253,3.54603 -11.30382,4.21879 -2.09328,0.31495 -7.18026,0.45735 -9.35177,0.26177 z m -5.839768,-10.87453 c 2.32565,-0.31798 4.723728,-1.44895 5.939438,-2.80111 1.25044,-1.39079 1.77414,-2.69247 1.88399,-4.68271 0.12932,-2.34287 -0.45638,-4.37092 -1.62231,-5.61739 -1.35871,-1.45257 -2.684048,-1.9768 -6.387318,-2.52646 -2.74078,-0.40681 -3.38117,-0.63074 -3.79187,-1.32601 -0.12099,-0.20482 -0.21998,-0.63765 -0.21998,-0.96184 0,-0.75484 0.41168,-1.38081 1.19785,-1.82136 0.54284,-0.30419 0.7268,-0.33131 2.24778,-0.33131 1.86817,0 2.60473,0.18342 3.70215,0.92193 l 0.64419,0.43352 1.946658,-1.94991 1.94666,-1.94991 -0.7736,-0.62214 c -1.03153,-0.82957 -2.627718,-1.59417 -4.086698,-1.9576 -1.61165,-0.40145 -5.19674,-0.43602 -6.62621,-0.0639 -3.02357,0.78713 -5.16323,2.73801 -5.98069,5.45305 -0.35652,1.18412 -0.32951,3.53885 0.0549,4.78677 0.33888,1.10005 1.12183,2.33762 1.84822,2.92136 1.31952,1.0604 2.95804,1.60446 6.13169,2.03602 2.99894,0.4078 3.52744,0.7166 3.66189,2.13962 0.0946,1.00101 -0.21261,1.52305 -1.18554,2.01479 -1.75121,0.88507 -5.50935,0.48001 -7.40936,-0.7986 l -0.68139,-0.45855 -1.96033,1.95707 -1.96033,1.95706 0.29484,0.31752 c 0.41362,0.44543 1.7603,1.3873 2.54775,1.78192 2.09502,1.04986 5.77701,1.53929 8.63761,1.14816 z"
       id="path6354"
       inkscape:connector-curvature="0"
       sodipodi:nodetypes="csscsscccccccsscccccccscccccscssccsccccsscccscscccccsscccccccccccsc" />
  </g>
</svg>
