<?xml version="1.0" encoding="UTF-8" standalone="no"?>
<!-- Created with Inkscape (http://www.inkscape.org/) -->

<svg
   xmlns:dc="http://purl.org/dc/elements/1.1/"
   xmlns:cc="http://creativecommons.org/ns#"
   xmlns:rdf="http://www.w3.org/1999/02/22-rdf-syntax-ns#"
   xmlns:svg="http://www.w3.org/2000/svg"
   xmlns="http://www.w3.org/2000/svg"
   xmlns:sodipodi="http://sodipodi.sourceforge.net/DTD/sodipodi-0.dtd"
   xmlns:inkscape="http://www.inkscape.org/namespaces/inkscape"
   id="svg2"
   version="1.1"
   inkscape:version="0.91 r13725"
   xml:space="preserve"
   width="100"
   height="100"
   viewBox="0 0 100 99.999995"
   sodipodi:docname="spotify--black.svg"><metadata
     id="metadata8"><rdf:RDF><cc:Work
         rdf:about=""><dc:format>image/svg+xml</dc:format><dc:type
           rdf:resource="http://purl.org/dc/dcmitype/StillImage" /><dc:title></dc:title></cc:Work></rdf:RDF></metadata><defs
     id="defs6"><clipPath
       clipPathUnits="userSpaceOnUse"
       id="clipPath16"><path
         d="m 0,841.89 595.28,0 L 595.28,0 0,0 0,841.89 Z"
         id="path18"
         inkscape:connector-curvature="0" /></clipPath></defs><sodipodi:namedview
     pagecolor="#ffffff"
     bordercolor="#666666"
     borderopacity="1"
     objecttolerance="10"
     gridtolerance="10"
     guidetolerance="10"
     inkscape:pageopacity="0"
     inkscape:pageshadow="2"
     inkscape:window-width="1366"
     inkscape:window-height="702"
     id="namedview4"
     showgrid="false"
     inkscape:zoom="1.2685909"
     inkscape:cx="210.59453"
     inkscape:cy="-15.500094"
     inkscape:window-x="0"
     inkscape:window-y="27"
     inkscape:window-maximized="1"
     inkscape:current-layer="g10" /><g
     id="g10"
     inkscape:groupmode="layer"
     inkscape:label="sc_cmyk_white"
     transform="matrix(1.25,0,0,-1.25,0,99.999951)"><g
       id="g12"
       style="fill:#000000"
       transform="translate(-158.94617,1.0581845e-7)"><path
         style="fill:#000000"
         d="m 193.63418,8.2697191 c -10.47174,1.7723059 -19.59178,8.7306279 -24.02829,18.3328739 -0.57092,1.235684 -1.40399,3.561255 -1.85125,5.167945 -0.74823,2.687749 -0.81283,3.350853 -0.80827,8.295867 0.004,4.614437 0.0989,5.719962 0.66916,7.816268 3.19271,11.736618 11.67806,20.181638 23.55541,23.443452 1.95898,0.537985 3.18512,0.645525 7.56333,0.663359 4.82359,0.01963 5.45191,-0.04185 8.17253,-0.799949 C 223.79316,66.48417 233.76629,50.246 230.23984,33.198838 227.66961,20.774165 217.40908,10.843365 204.63928,8.4209771 c -2.51186,-0.476494 -8.58986,-0.560032 -11.0051,-0.151258 z m 19.59527,17.1522129 c 1.46378,1.463777 0.65839,2.822875 -2.63801,4.451653 -2.70972,1.338903 -5.68484,2.364395 -8.93216,3.078835 -5.44847,1.198703 -19.29389,0.330576 -20.86248,-1.308108 -0.87068,-0.909586 -0.94252,-1.711214 -0.23409,-2.61184 0.74248,-0.943909 1.06625,-0.944686 6.82515,-0.01635 2.36532,0.381284 4.27167,0.46979 7.76333,0.360427 5.72281,-0.179239 9.23825,-1.004822 13.43655,-3.155504 1.56013,-0.799213 3.07785,-1.470869 3.3727,-1.492561 0.29486,-0.02172 0.86591,0.290367 1.26901,0.693463 z m 3.88167,8.659105 c 0.98351,0.98351 0.99683,2.613385 0.0293,3.580951 -1.68426,1.684259 -8.54937,4.395369 -14.15273,5.589071 -2.75468,0.586838 -4.09494,0.684435 -9.47871,0.690247 -5.50662,0.0059 -6.65181,-0.0786 -9.4018,-0.694043 -1.72229,-0.385445 -3.49864,-0.890708 -3.94747,-1.122802 -1.43863,-0.743948 -1.85972,-2.358057 -0.95291,-3.652709 0.81785,-1.167647 1.70891,-1.306051 4.24641,-0.659574 7.6613,1.95186 17.34542,1.41317 24.80199,-1.379645 1.55568,-0.582669 3.64417,-1.513485 4.64109,-2.068481 2.17006,-1.208102 3.21932,-1.278558 4.21486,-0.283015 z m 3.75715,9.588276 c 1.66305,0.859998 2.08122,3.225931 0.81113,4.589217 -0.78175,0.839109 -4.58927,2.727883 -7.74052,3.839798 -3.19767,1.128293 -8.45807,2.303636 -12.368,2.763412 -8.98035,1.056019 -22.59918,-0.414133 -24.34023,-2.62752 -0.92963,-1.181833 -0.79373,-2.905059 0.31668,-4.015466 0.84106,-0.84106 1.02443,-0.896266 2.46336,-0.741618 0.85507,0.09189 2.42804,0.373569 3.4955,0.625945 1.06746,0.252371 3.85564,0.623504 6.19595,0.824742 9.35159,0.804114 19.806,-0.942838 26.49964,-4.428132 2.66372,-1.386968 3.35298,-1.509618 4.66649,-0.830378 z"
         id="path4267"
         inkscape:connector-curvature="0"
         sodipodi:nodetypes="ssssssssssscsssssssccccsssssssssccsssssssssss" /></g></g></svg>
